<svg xmlns="http://www.w3.org/2000/svg" width="239.284" height="240" viewBox="0 0 239.284 240">
  <g id="undraw_access_account_re_8spm" transform="translate(0 -0.001)">
    <path id="Path_1" data-name="Path 1" d="M250.587,674.542l-2.107-8.311a107.927,107.927,0,0,0-11.45-4.108l-.266,3.863-1.079-4.256c-4.826-1.38-8.108-1.986-8.108-1.986s4.433,16.862,13.735,29.753l10.837,1.9-8.419,1.214a43.663,43.663,0,0,0,3.765,3.991c13.529,12.558,28.6,18.32,33.658,12.869s-1.807-20.05-15.337-32.607a57.5,57.5,0,0,0-14.737-9.477Z" transform="translate(-227.576 -472.362)" fill="#f2f2f2"/>
    <path id="Path_2" data-name="Path 2" d="M328.02,625.812l2.492-8.2a107.937,107.937,0,0,0-7.678-9.435l-2.224,3.169,1.276-4.2c-3.418-3.674-5.915-5.89-5.915-5.89s-4.92,16.727-3.622,32.57l8.293,7.231-7.836-3.313a43.656,43.656,0,0,0,1.161,5.363c5.091,17.744,15.012,30.466,22.161,28.415s8.817-18.1,3.727-35.842a57.492,57.492,0,0,0-7.717-15.73Z" transform="translate(-284.968 -432.661)" fill="#f2f2f2"/>
    <path id="Path_22" data-name="Path 22" d="M495.264,133.318h-1.315V97.306a20.844,20.844,0,0,0-20.844-20.844h-76.3a20.844,20.844,0,0,0-20.844,20.844v197.57a20.844,20.844,0,0,0,20.844,20.844h76.3a20.844,20.844,0,0,0,20.844-20.843V158.952h1.315Z" transform="translate(-328.293 -76.461)" fill="#e6e6e6"/>
    <path id="Path_23" data-name="Path 23" d="M486.1,93.335h-9.959a7.4,7.4,0,0,1-6.848,10.188H425.58a7.4,7.4,0,0,1-6.847-10.188h-9.3A15.566,15.566,0,0,0,393.865,108.9V306.184a15.566,15.566,0,0,0,15.566,15.566H486.1a15.566,15.566,0,0,0,15.566-15.566h0V108.9A15.566,15.566,0,0,0,486.1,93.335Z" transform="translate(-340.444 -87.914)" fill="#fff"/>
    <path id="Path_6" data-name="Path 6" d="M514.642,321.366a7.851,7.851,0,0,1,3.93-6.8,7.855,7.855,0,1,0,0,13.6A7.849,7.849,0,0,1,514.642,321.366Z" transform="translate(-417.092 -237.357)" fill="#ccc"/>
    <path id="Path_7" data-name="Path 7" d="M545.38,321.366a7.851,7.851,0,0,1,3.93-6.8,7.855,7.855,0,1,0,0,13.6A7.85,7.85,0,0,1,545.38,321.366Z" transform="translate(-437.955 -237.357)" fill="#ccc"/>
    <circle id="Ellipse_1" data-name="Ellipse 1" cx="7.855" cy="7.855" r="7.855" transform="translate(109.221 76.154)" fill="#2da94f"/>
    <path id="Path_8" data-name="Path 8" d="M532.677,310.663H486.9a1.646,1.646,0,0,1-1.644-1.644V263.241A1.646,1.646,0,0,1,486.9,261.6h45.778a1.646,1.646,0,0,1,1.644,1.644v45.778A1.646,1.646,0,0,1,532.677,310.663ZM486.9,262.255a.987.987,0,0,0-.986.986V309.02a.987.987,0,0,0,.986.986h45.778a.987.987,0,0,0,.986-.986V263.241a.987.987,0,0,0-.986-.986Z" transform="translate(-402.475 -202.122)" fill="#ccc"/>
    <rect id="Rectangle_1" data-name="Rectangle 1" width="70.21" height="0.658" transform="translate(70.213 143.633)" fill="#ccc"/>
    <circle id="Ellipse_2" data-name="Ellipse 2" cx="2.217" cy="2.217" r="2.217" transform="translate(70.213 135.093)" fill="#2da94f"/>
    <rect id="Rectangle_2" data-name="Rectangle 2" width="70.21" height="0.658" transform="translate(70.213 165.804)" fill="#ccc"/>
    <circle id="Ellipse_3" data-name="Ellipse 3" cx="2.217" cy="2.217" r="2.217" transform="translate(70.213 157.264)" fill="#2da94f"/>
    <path id="Path_6-2" data-name="Path 6" d="M610.756,648.632H588.568a1.447,1.447,0,0,1-1.446-1.446V639.41a1.447,1.447,0,0,1,1.446-1.446h22.188a1.447,1.447,0,0,1,1.446,1.446v7.777A1.447,1.447,0,0,1,610.756,648.632Z" transform="translate(-471.617 -457.58)" fill="#2da94f"/>
    <circle id="Ellipse_7" data-name="Ellipse 7" cx="2.217" cy="2.217" r="2.217" transform="translate(77.446 135.093)" fill="#2da94f"/>
    <circle id="Ellipse_8" data-name="Ellipse 8" cx="2.217" cy="2.217" r="2.217" transform="translate(84.679 135.093)" fill="#2da94f"/>
    <circle id="Ellipse_9" data-name="Ellipse 9" cx="2.217" cy="2.217" r="2.217" transform="translate(77.446 157.264)" fill="#2da94f"/>
    <circle id="Ellipse_10" data-name="Ellipse 10" cx="2.217" cy="2.217" r="2.217" transform="translate(84.679 157.264)" fill="#2da94f"/>
    <path id="Path_88" data-name="Path 88" d="M480.422,821.885H249.768c-.494,0-.894-.175-.894-.391s.4-.392.894-.392H480.422c.493,0,.894.175.894.392S480.916,821.885,480.422,821.885Z" transform="translate(-242.032 -581.884)" fill="#3f3d56"/>
    <path id="Path_7-2" data-name="Path 7" d="M782.462,545.37a3.237,3.237,0,0,1,.453.253l14.409-6.15.514-3.8,5.757-.035-.34,8.705-19.018,5.03a3.423,3.423,0,0,1-.144.388,3.288,3.288,0,1,1-1.632-4.4Z" transform="translate(-601.059 -388.129)" fill="#ffb8b8"/>
    <path id="Path_8-2" data-name="Path 8" d="M624.7,702.924h-3.938l-1.874-15.191H624.7Z" transform="translate(-420.069 -466.797)" fill="#ffb8b8"/>
    <path id="Path_9" data-name="Path 9" d="M605.859,731.518h7.6V736.3H601.076A4.782,4.782,0,0,1,605.859,731.518Z" transform="translate(-407.979 -496.516)" fill="#2f2e41"/>
    <path id="Path_10" data-name="Path 10" d="M669.292,699.615l-3.92.386-3.354-14.934,5.785-.57Z" transform="translate(-449.343 -464.601)" fill="#ffb8b8"/>
    <path id="Path_11" data-name="Path 11" d="M4.782,0h7.6V4.782H0A4.782,4.782,0,0,1,4.782,0Z" transform="translate(208.358 235.025) rotate(-5.625)" fill="#2f2e41"/>
    <circle id="Ellipse_2-2" data-name="Ellipse 2" cx="7.89" cy="7.89" r="7.89" transform="translate(197.837 115.655)" fill="#ffb8b8"/>
    <path id="Path_12" data-name="Path 12" d="M827.826,684.6a1.436,1.436,0,0,1-1.418-1.188c-2.039-11.316-8.7-48.318-8.861-49.343a.463.463,0,0,1-.005-.071v-2.759a.479.479,0,0,1,.09-.28l.88-1.233a.475.475,0,0,1,.367-.2c5.019-.235,21.454-.925,22.249.067h0c.8,1,.516,4.018.451,4.613l0,.062,7.384,47.222a1.45,1.45,0,0,1-1.193,1.65l-4.612.76a1.453,1.453,0,0,1-1.614-.994c-1.427-4.558-6.21-19.891-7.867-25.824a.16.16,0,0,0-.315.045c.083,5.656.283,20.086.352,25.07l.007.537a1.451,1.451,0,0,1-1.315,1.457l-4.447.4C827.916,684.6,827.871,684.6,827.826,684.6Z" transform="translate(-628.014 -451.544)" fill="#2f2e41"/>
    <path id="Path_99" data-name="Path 99" d="M829.292,493.7a6.6,6.6,0,0,0-2.674,3.853,36.519,36.519,0,0,0-1.569,8.725l-.5,8.867-6.186,23.506c5.361,4.536,8.454,3.505,15.671-.205s8.042,1.237,8.042,1.237l1.443-20,2.062-21.856a9.685,9.685,0,0,0-1.562-1.5,15.953,15.953,0,0,0-13.635-2.89Z" transform="translate(-628.572 -359.165)" fill="#2da94f"/>
    <path id="Path_13" data-name="Path 13" d="M836.54,557.094a3.392,3.392,0,0,1,.482.226l14.247-7.131.236-3.863,5.877-.405.315,8.806-19.039,6.3a3.372,3.372,0,1,1-2.118-3.929Z" transform="translate(-637.829 -395.106)" fill="#ffb8b8"/>
    <path id="Path_101" data-name="Path 101" d="M886.845,507.512c3.505,1.237,4.123,14.641,4.123,14.641-4.124-2.268-9.073,1.444-9.073,1.444s-1.031-3.505-2.268-8.042a7.88,7.88,0,0,1,1.649-7.423A5.615,5.615,0,0,1,886.845,507.512Z" transform="translate(-669.939 -368.747)" fill="#2da94f"/>
    <path id="Path_102" data-name="Path 102" d="M858.379,439.853c-.983-.787-2.324.643-2.324.643l-.787-7.078s-4.915.589-8.061-.2-3.637,2.851-3.637,2.851a25.251,25.251,0,0,1-.1-4.424c.2-1.77,2.753-3.539,7.275-4.719s6.882,3.932,6.882,3.932C860.773,432.434,859.362,440.639,858.379,439.853Z" transform="translate(-645.577 -314.22)" fill="#2f2e41"/>
  </g>
</svg>
